<svg id="visual" viewBox="0 0 500 300" width="500" height="300" xmlns="http://www.w3.org/2000/svg" xmlns:xlink="http://www.w3.org/1999/xlink" version="1.1"><rect x="0" y="0" width="500" height="300" fill="#001220"></rect><path d="M0 196L9.3 196.5C18.7 197 37.3 198 55.8 190.2C74.3 182.3 92.7 165.7 111.2 163.8C129.7 162 148.3 175 166.8 175.5C185.3 176 203.7 164 222.2 164.8C240.7 165.7 259.3 179.3 277.8 186C296.3 192.7 314.7 192.3 333.2 193.8C351.7 195.3 370.3 198.7 388.8 196C407.3 193.3 425.7 184.7 444.2 178.5C462.7 172.3 481.3 168.7 490.7 166.8L500 165L500 301L490.7 301C481.3 301 462.7 301 444.2 301C425.7 301 407.3 301 388.8 301C370.3 301 351.7 301 333.2 301C314.7 301 296.3 301 277.8 301C259.3 301 240.7 301 222.2 301C203.7 301 185.3 301 166.8 301C148.3 301 129.7 301 111.2 301C92.7 301 74.3 301 55.8 301C37.3 301 18.7 301 9.3 301L0 301Z" fill="#fa7268"></path><path d="M0 227L9.3 229.3C18.7 231.7 37.3 236.3 55.8 231.5C74.3 226.7 92.7 212.3 111.2 209C129.7 205.7 148.3 213.3 166.8 216.2C185.3 219 203.7 217 222.2 213.7C240.7 210.3 259.3 205.7 277.8 201.7C296.3 197.7 314.7 194.3 333.2 193.5C351.7 192.7 370.3 194.3 388.8 199C407.3 203.7 425.7 211.3 444.2 212.5C462.7 213.7 481.3 208.3 490.7 205.7L500 203L500 301L490.7 301C481.3 301 462.7 301 444.2 301C425.7 301 407.3 301 388.8 301C370.3 301 351.7 301 333.2 301C314.7 301 296.3 301 277.8 301C259.3 301 240.7 301 222.2 301C203.7 301 185.3 301 166.8 301C148.3 301 129.7 301 111.2 301C92.7 301 74.3 301 55.8 301C37.3 301 18.7 301 9.3 301L0 301Z" fill="#e34c67"></path><path d="M0 266L9.3 267.5C18.7 269 37.3 272 55.8 267.7C74.3 263.3 92.7 251.7 111.2 247C129.7 242.3 148.3 244.7 166.8 244.2C185.3 243.7 203.7 240.3 222.2 239.2C240.7 238 259.3 239 277.8 239.7C296.3 240.3 314.7 240.7 333.2 242.7C351.7 244.7 370.3 248.3 388.8 251.7C407.3 255 425.7 258 444.2 259.8C462.7 261.7 481.3 262.3 490.7 262.7L500 263L500 301L490.7 301C481.3 301 462.7 301 444.2 301C425.7 301 407.3 301 388.8 301C370.3 301 351.7 301 333.2 301C314.7 301 296.3 301 277.8 301C259.3 301 240.7 301 222.2 301C203.7 301 185.3 301 166.8 301C148.3 301 129.7 301 111.2 301C92.7 301 74.3 301 55.8 301C37.3 301 18.7 301 9.3 301L0 301Z" fill="#c62368"></path></svg>