<svg id="visual" viewBox="0 0 500 300" width="500" height="300" xmlns="http://www.w3.org/2000/svg" xmlns:xlink="http://www.w3.org/1999/xlink" version="1.1"><rect x="0" y="0" width="500" height="300" fill="#001220"></rect><defs><linearGradient id="grad1_0" x1="40%" y1="0%" x2="100%" y2="100%"><stop offset="16.666666666666664%" stop-color="#001220" stop-opacity="1"></stop><stop offset="83.33333333333334%" stop-color="#001220" stop-opacity="1"></stop></linearGradient></defs><defs><linearGradient id="grad2_0" x1="0%" y1="0%" x2="60%" y2="100%"><stop offset="16.666666666666664%" stop-color="#001220" stop-opacity="1"></stop><stop offset="83.33333333333334%" stop-color="#001220" stop-opacity="1"></stop></linearGradient></defs><g transform="translate(500, 0)"><path d="M0 218.7C-26.7 221.6 -53.4 224.6 -67.6 208C-81.8 191.3 -83.5 155 -102.3 140.8C-121.1 126.5 -156.9 134.4 -169.1 122.8C-181.3 111.3 -169.7 80.3 -174 56.6C-178.4 32.8 -198.5 16.4 -218.7 0L0 0Z" fill="#FFAB40"></path></g><g transform="translate(0, 300)"><path d="M0 -218.7C24.8 -219.7 49.6 -220.7 67.6 -208C85.5 -195.2 96.6 -168.7 109.3 -150.5C122.1 -132.3 136.5 -122.3 150.5 -109.3C164.5 -96.3 178 -80.2 189.3 -61.5C200.5 -42.8 209.6 -21.4 218.7 0L0 0Z" fill="#FFAB40"></path></g></svg>