<svg id="visual" viewBox="0 0 1000 600" width="1000" height="600" xmlns="http://www.w3.org/2000/svg" xmlns:xlink="http://www.w3.org/1999/xlink" version="1.1"><g stroke-width="1" stroke-linejoin="bevel"><path d="M481.4 315L557.6 390L551.6 312Z" fill="#00cc8e" stroke="#00cc8e"></path><path d="M481.4 315L429.4 429L557.6 390Z" fill="#04ae6c" stroke="#04ae6c"></path><path d="M557.6 390L645.7 280L551.6 312Z" fill="#03bd7d" stroke="#03bd7d"></path><path d="M551.6 312L567.6 177L481.4 315Z" fill="#00843d" stroke="#00843d"></path><path d="M572.6 538L628.7 479L557.6 390Z" fill="#02c585" stroke="#02c585"></path><path d="M557.6 390L698.7 431L645.7 280Z" fill="#00cc8e" stroke="#00cc8e"></path><path d="M429.4 429L444.4 515L557.6 390Z" fill="#04ae6c" stroke="#04ae6c"></path><path d="M645.7 280L567.6 177L551.6 312Z" fill="#018b45" stroke="#018b45"></path><path d="M298.3 320L345.3 425L481.4 315Z" fill="#02924c" stroke="#02924c"></path><path d="M481.4 315L345.3 425L429.4 429Z" fill="#00843d" stroke="#00843d"></path><path d="M429.4 429L339.3 470L444.4 515Z" fill="#00cc8e" stroke="#00cc8e"></path><path d="M444.4 515L572.6 538L557.6 390Z" fill="#03bd7d" stroke="#03bd7d"></path><path d="M801.8 514L698.7 431L628.7 479Z" fill="#04ae6c" stroke="#04ae6c"></path><path d="M628.7 479L698.7 431L557.6 390Z" fill="#04a764" stroke="#04a764"></path><path d="M567.6 177L428.4 167L481.4 315Z" fill="#04ae6c" stroke="#04ae6c"></path><path d="M345.3 425L339.3 470L429.4 429Z" fill="#04b674" stroke="#04b674"></path><path d="M428.4 167L298.3 320L481.4 315Z" fill="#039954" stroke="#039954"></path><path d="M345.3 425L228.2 437L339.3 470Z" fill="#04b674" stroke="#04b674"></path><path d="M758.8 169L666.7 183L645.7 280Z" fill="#02924c" stroke="#02924c"></path><path d="M645.7 280L666.7 183L567.6 177Z" fill="#03bd7d" stroke="#03bd7d"></path><path d="M567.6 177L522.6 127L428.4 167Z" fill="#00cc8e" stroke="#00cc8e"></path><path d="M640.7 112L522.6 127L567.6 177Z" fill="#039954" stroke="#039954"></path><path d="M522.6 127L424.4 135L428.4 167Z" fill="#04a05c" stroke="#04a05c"></path><path d="M428.4 167L342.3 163L298.3 320Z" fill="#00cc8e" stroke="#00cc8e"></path><path d="M447.4 600L567.6 600L572.6 538Z" fill="#04ae6c" stroke="#04ae6c"></path><path d="M572.6 538L657.7 600L628.7 479Z" fill="#039954" stroke="#039954"></path><path d="M447.4 600L572.6 538L444.4 515Z" fill="#00cc8e" stroke="#00cc8e"></path><path d="M295.3 600L447.4 600L444.4 515Z" fill="#02924c" stroke="#02924c"></path><path d="M424.4 135L342.3 163L428.4 167Z" fill="#00cc8e" stroke="#00cc8e"></path><path d="M698.7 431L779.8 326L645.7 280Z" fill="#04a05c" stroke="#04a05c"></path><path d="M758.8 169L640.7 112L666.7 183Z" fill="#018b45" stroke="#018b45"></path><path d="M666.7 183L640.7 112L567.6 177Z" fill="#039954" stroke="#039954"></path><path d="M414.4 0L298.3 103L424.4 135Z" fill="#04a764" stroke="#04a764"></path><path d="M567.6 600L657.7 600L572.6 538Z" fill="#04b674" stroke="#04b674"></path><path d="M698.7 431L808.8 398L779.8 326Z" fill="#03bd7d" stroke="#03bd7d"></path><path d="M801.8 514L808.8 398L698.7 431Z" fill="#00cc8e" stroke="#00cc8e"></path><path d="M193.2 223L219.2 333L298.3 320Z" fill="#04b674" stroke="#04b674"></path><path d="M298.3 320L228.2 437L345.3 425Z" fill="#00843d" stroke="#00843d"></path><path d="M339.3 470L295.3 600L444.4 515Z" fill="#02c585" stroke="#02c585"></path><path d="M219.2 333L228.2 437L298.3 320Z" fill="#03bd7d" stroke="#03bd7d"></path><path d="M779.8 326L758.8 169L645.7 280Z" fill="#04b674" stroke="#04b674"></path><path d="M858.9 188L758.8 169L779.8 326Z" fill="#04b674" stroke="#04b674"></path><path d="M657.7 600L801.8 514L628.7 479Z" fill="#04a764" stroke="#04a764"></path><path d="M221.2 528L295.3 600L339.3 470Z" fill="#04a05c" stroke="#04a05c"></path><path d="M424.4 135L298.3 103L342.3 163Z" fill="#04a764" stroke="#04a764"></path><path d="M342.3 163L193.2 223L298.3 320Z" fill="#018b45" stroke="#018b45"></path><path d="M414.4 0L424.4 135L522.6 127Z" fill="#04a764" stroke="#04a764"></path><path d="M130.1 510L221.2 528L228.2 437Z" fill="#02c585" stroke="#02c585"></path><path d="M228.2 437L221.2 528L339.3 470Z" fill="#02c585" stroke="#02c585"></path><path d="M226.2 113L193.2 223L342.3 163Z" fill="#04a764" stroke="#04a764"></path><path d="M219.2 333L131.1 367L228.2 437Z" fill="#04a764" stroke="#04a764"></path><path d="M654.7 0L541.6 0L640.7 112Z" fill="#04a05c" stroke="#04a05c"></path><path d="M640.7 112L541.6 0L522.6 127Z" fill="#03bd7d" stroke="#03bd7d"></path><path d="M221.2 528L245.2 600L295.3 600Z" fill="#00cc8e" stroke="#00cc8e"></path><path d="M541.6 0L414.4 0L522.6 127Z" fill="#04b674" stroke="#04b674"></path><path d="M801.8 600L850.9 520L801.8 514Z" fill="#02924c" stroke="#02924c"></path><path d="M801.8 514L850.9 520L808.8 398Z" fill="#04ae6c" stroke="#04ae6c"></path><path d="M901.9 299L858.9 188L779.8 326Z" fill="#04b674" stroke="#04b674"></path><path d="M657.7 600L801.8 600L801.8 514Z" fill="#04a05c" stroke="#04a05c"></path><path d="M222.2 0L226.2 113L298.3 103Z" fill="#04b674" stroke="#04b674"></path><path d="M298.3 103L226.2 113L342.3 163Z" fill="#04ae6c" stroke="#04ae6c"></path><path d="M901.9 299L779.8 326L808.8 398Z" fill="#02c585" stroke="#02c585"></path><path d="M791.8 75L654.7 0L640.7 112Z" fill="#018b45" stroke="#018b45"></path><path d="M791.8 75L640.7 112L758.8 169Z" fill="#04a764" stroke="#04a764"></path><path d="M115.1 300L131.1 367L219.2 333Z" fill="#00843d" stroke="#00843d"></path><path d="M221.2 528L100.1 600L245.2 600Z" fill="#00cc8e" stroke="#00cc8e"></path><path d="M115.1 300L219.2 333L193.2 223Z" fill="#04a05c" stroke="#04a05c"></path><path d="M914.9 362L901.9 299L808.8 398Z" fill="#039954" stroke="#039954"></path><path d="M858.9 188L791.8 75L758.8 169Z" fill="#02924c" stroke="#02924c"></path><path d="M850.9 520L914.9 362L808.8 398Z" fill="#00843d" stroke="#00843d"></path><path d="M114.1 218L115.1 300L193.2 223Z" fill="#02924c" stroke="#02924c"></path><path d="M414.4 0L311.3 0L298.3 103Z" fill="#04a764" stroke="#04a764"></path><path d="M100.1 600L130.1 510L0 498Z" fill="#018b45" stroke="#018b45"></path><path d="M131.1 367L130.1 510L228.2 437Z" fill="#04ae6c" stroke="#04ae6c"></path><path d="M226.2 113L114.1 218L193.2 223Z" fill="#04ae6c" stroke="#04ae6c"></path><path d="M79.1 89L114.1 218L226.2 113Z" fill="#04b674" stroke="#04b674"></path><path d="M1000 92L857.9 81L858.9 188Z" fill="#02c585" stroke="#02c585"></path><path d="M858.9 188L857.9 81L791.8 75Z" fill="#04a05c" stroke="#04a05c"></path><path d="M791.8 75L809.8 0L654.7 0Z" fill="#00cc8e" stroke="#00cc8e"></path><path d="M1000 187L858.9 188L901.9 299Z" fill="#02c585" stroke="#02c585"></path><path d="M857.9 81L809.8 0L791.8 75Z" fill="#00843d" stroke="#00843d"></path><path d="M311.3 0L222.2 0L298.3 103Z" fill="#02924c" stroke="#02924c"></path><path d="M801.8 600L913.9 600L850.9 520Z" fill="#039954" stroke="#039954"></path><path d="M1000 524L1000 377L914.9 362Z" fill="#00843d" stroke="#00843d"></path><path d="M1000 377L1000 334L914.9 362Z" fill="#04b674" stroke="#04b674"></path><path d="M914.9 362L1000 334L901.9 299Z" fill="#02c585" stroke="#02c585"></path><path d="M1000 524L914.9 362L850.9 520Z" fill="#04b674" stroke="#04b674"></path><path d="M0 393L130.1 510L131.1 367Z" fill="#04b674" stroke="#04b674"></path><path d="M130.1 510L100.1 600L221.2 528Z" fill="#00843d" stroke="#00843d"></path><path d="M0 393L131.1 367L115.1 300Z" fill="#04ae6c" stroke="#04ae6c"></path><path d="M1000 334L1000 187L901.9 299Z" fill="#04a764" stroke="#04a764"></path><path d="M857.9 81L909.9 0L809.8 0Z" fill="#04ae6c" stroke="#04ae6c"></path><path d="M913.9 600L1000 524L850.9 520Z" fill="#03bd7d" stroke="#03bd7d"></path><path d="M130.1 0L79.1 89L226.2 113Z" fill="#04a05c" stroke="#04a05c"></path><path d="M0 281L0 393L115.1 300Z" fill="#02c585" stroke="#02c585"></path><path d="M0 281L115.1 300L114.1 218Z" fill="#02c585" stroke="#02c585"></path><path d="M0 192L0 281L114.1 218Z" fill="#00843d" stroke="#00843d"></path><path d="M222.2 0L130.1 0L226.2 113Z" fill="#04a764" stroke="#04a764"></path><path d="M1000 92L909.9 0L857.9 81Z" fill="#04a764" stroke="#04a764"></path><path d="M0 393L0 498L130.1 510Z" fill="#04b674" stroke="#04b674"></path><path d="M913.9 600L1000 600L1000 524Z" fill="#04b674" stroke="#04b674"></path><path d="M0 104L0 192L79.1 89Z" fill="#00cc8e" stroke="#00cc8e"></path><path d="M79.1 89L0 192L114.1 218Z" fill="#00843d" stroke="#00843d"></path><path d="M1000 187L1000 92L858.9 188Z" fill="#00cc8e" stroke="#00cc8e"></path><path d="M0 498L0 600L100.1 600Z" fill="#04a764" stroke="#04a764"></path><path d="M0 0L0 104L79.1 89Z" fill="#04a05c" stroke="#04a05c"></path><path d="M1000 92L1000 0L909.9 0Z" fill="#02924c" stroke="#02924c"></path><path d="M130.1 0L0 0L79.1 89Z" fill="#04a764" stroke="#04a764"></path></g></svg>