<svg id="visual" viewBox="0 0 1000 600" width="1000" height="600" xmlns="http://www.w3.org/2000/svg" xmlns:xlink="http://www.w3.org/1999/xlink" version="1.1"><path d="M0 55L91 43L182 109L273 43L364 127L455 85L545 133L636 61L727 121L818 109L909 73L1000 49L1000 0L909 0L818 0L727 0L636 0L545 0L455 0L364 0L273 0L182 0L91 0L0 0Z" fill="#00cc8e"></path><path d="M0 235L91 259L182 241L273 241L364 211L455 223L545 199L636 211L727 271L818 265L909 175L1000 325L1000 47L909 71L818 107L727 119L636 59L545 131L455 83L364 125L273 41L182 107L91 41L0 53Z" fill="#03b979"></path><path d="M0 403L91 421L182 379L273 361L364 433L455 427L545 415L636 385L727 469L818 409L909 439L1000 451L1000 323L909 173L818 263L727 269L636 209L545 197L455 221L364 209L273 239L182 239L91 257L0 233Z" fill="#04a764"></path><path d="M0 463L91 523L182 457L273 463L364 487L455 499L545 457L636 463L727 511L818 487L909 517L1000 541L1000 449L909 437L818 407L727 467L636 383L545 413L455 425L364 431L273 359L182 377L91 419L0 401Z" fill="#039550"></path><path d="M0 601L91 601L182 601L273 601L364 601L455 601L545 601L636 601L727 601L818 601L909 601L1000 601L1000 539L909 515L818 485L727 509L636 461L545 455L455 497L364 485L273 461L182 455L91 521L0 461Z" fill="#00843d"></path></svg>