<svg id="visual" viewBox="0 0 500 300" width="500" height="300" xmlns="http://www.w3.org/2000/svg" xmlns:xlink="http://www.w3.org/1999/xlink" version="1.1"><path d="M0 13L250 58L500 7L500 0L250 0L0 0Z" fill="#00cc8e"></path><path d="M0 67L250 97L500 55L500 5L250 56L0 11Z" fill="#03bd7d"></path><path d="M0 127L250 166L500 115L500 53L250 95L0 65Z" fill="#04ae6c"></path><path d="M0 160L250 211L500 169L500 113L250 164L0 125Z" fill="#04a05c"></path><path d="M0 256L250 277L500 283L500 167L250 209L0 158Z" fill="#02924c"></path><path d="M0 301L250 301L500 301L500 281L250 275L0 254Z" fill="#00843d"></path></svg>